<?xml version="1.0" encoding="UTF-8" standalone="no"?>
<svg
   xmlns:dc="http://purl.org/dc/elements/1.1/"
   xmlns:cc="http://creativecommons.org/ns#"
   xmlns:rdf="http://www.w3.org/1999/02/22-rdf-syntax-ns#"
   xmlns:svg="http://www.w3.org/2000/svg"
   xmlns="http://www.w3.org/2000/svg"
   xmlns:sodipodi="http://sodipodi.sourceforge.net/DTD/sodipodi-0.dtd"
   xmlns:inkscape="http://www.inkscape.org/namespaces/inkscape"
   width="100"
   height="100"
   id="svg4135"
   version="1.1"
   inkscape:version="0.48.2 r9819"
   sodipodi:docname="Bathtub-grey.svg"
   inkscape:export-filename="D:\KULeuven\PhD\Work\Hybrid-BCI\HybBciCode\code\scenarios\pictures\bathtub-grey.png"
   inkscape:export-xdpi="90"
   inkscape:export-ydpi="90">
  <defs
     id="defs4164" />
  <sodipodi:namedview
     pagecolor="#000000"
     bordercolor="#666666"
     borderopacity="1"
     objecttolerance="10"
     gridtolerance="10"
     guidetolerance="10"
     inkscape:pageopacity="0"
     inkscape:pageshadow="2"
     inkscape:window-width="1920"
     inkscape:window-height="1181"
     id="namedview4162"
     showgrid="false"
     inkscape:zoom="5.3366015"
     inkscape:cx="-50.688668"
     inkscape:cy="48.978717"
     inkscape:window-x="1916"
     inkscape:window-y="-4"
     inkscape:window-maximized="1"
     inkscape:current-layer="g4826"
     inkscape:showpageshadow="false" />
  <metadata
     id="metadata4822">image/svg+xml<rdf:RDF>
  <cc:Work
     rdf:about="">
    <dc:format>image/svg+xml</dc:format>
    <dc:type
       rdf:resource="http://purl.org/dc/dcmitype/StillImage" />
    <dc:title></dc:title>
  </cc:Work>
</rdf:RDF>
</metadata>
  <g
     id="g4824"
     transform="matrix(1.25,0,0,-1.25,0,100.00049)">
    <g
       id="g4826"
       transform="scale(0.24,0.24)">
      <path
         style="fill:#646464;fill-opacity:1;stroke:#000000;stroke-width:3.33999999999999990;stroke-miterlimit:2.61299992000000000;stroke-opacity:1;stroke-dasharray:none"
         inkscape:connector-curvature="0"
         d="m 266.56258,84.559388 c 5.41919,-9.288763 9.45442,-14.725066 12.06057,-16.221232 l 16.90226,0 c 0,12.339433 -4.13865,18.521402 -12.37139,18.521402 l -5.64783,25.768952 c 30.45798,9.90834 46.52415,53.8876 46.52415,139.14416 5.09027,0 7.63315,2.18295 7.63315,6.58361 0,4.40061 -2.19238,6.64218 -6.57765,6.64218 l 0,0 -316.8072151,0 c -4.4275725,0 -6.6087831,-2.24157 -6.6087831,-6.64218 0,-4.40066 2.522078,-6.58361 7.5815791,-6.58361 0,-85.30516 15.9162341,-129.29497 46.6027441,-139.15709 L 50.48951,86.859558 c -8.47197,0 -12.700353,-6.181969 -12.700353,-18.521415 l 17.283178,0 c 2.54291,1.496166 6.484504,6.932442 11.821338,16.221235 5.318199,9.346501 7.94347,19.360872 7.901788,26.987812 l 182.850259,-0.003 c 0.3942,-7.62668 3.4761,-17.636998 8.91686,-26.983519 z"
         id="path4846"
         stroke-miterlimit="2.613"
         sodipodi:nodetypes="ccccccsccssccccccccc"
         inkscape:export-filename="D:\KULeuven\PhD\Work\Hybrid-BCI\HybBciCode\code\scenarios\pictures\bathtub-grey.png"
         inkscape:export-xdpi="90"
         inkscape:export-ydpi="90" />
    </g>
  </g>
</svg>
