<?xml version="1.0" encoding="UTF-8" standalone="no"?>
<!-- Created with Inkscape (http://www.inkscape.org/) -->

<svg
   xmlns:dc="http://purl.org/dc/elements/1.1/"
   xmlns:cc="http://creativecommons.org/ns#"
   xmlns:rdf="http://www.w3.org/1999/02/22-rdf-syntax-ns#"
   xmlns:svg="http://www.w3.org/2000/svg"
   xmlns="http://www.w3.org/2000/svg"
   xmlns:sodipodi="http://sodipodi.sourceforge.net/DTD/sodipodi-0.dtd"
   xmlns:inkscape="http://www.inkscape.org/namespaces/inkscape"
   width="100"
   height="100"
   id="svg69498"
   sodipodi:version="0.32"
   inkscape:version="0.48.2 r9819"
   sodipodi:docname="Shirt-offset.svg"
   inkscape:output_extension="org.inkscape.output.svg.inkscape"
   inkscape:export-filename="d:\KULeuven\PhD\Work\hybrid-BCI-2\code\scenarios\pictures\white-black-scenario\shirt-offset.png"
   inkscape:export-xdpi="90"
   inkscape:export-ydpi="90"
   version="1.0"
   sodipodi:modified="true">
  <defs
     id="defs69500">
    <linearGradient
       id="linearGradient52013">
      <stop
         style="stop-color:#9bb0b8;stop-opacity:0.49803922;"
         offset="0"
         id="stop52019" />
      <stop
         id="stop52021"
         offset="0.5"
         style="stop-color:#ffffff;stop-opacity:1;" />
      <stop
         id="stop52017"
         offset="1"
         style="stop-color:#ffffff;stop-opacity:0;" />
    </linearGradient>
  </defs>
  <sodipodi:namedview
     id="base"
     pagecolor="#000000"
     bordercolor="#666666"
     borderopacity="1"
     gridtolerance="10000"
     guidetolerance="10"
     objecttolerance="10"
     inkscape:pageopacity="0"
     inkscape:pageshadow="2"
     inkscape:zoom="4.7313762"
     inkscape:cx="34.251367"
     inkscape:cy="43.076455"
     inkscape:document-units="px"
     inkscape:current-layer="layer1"
     inkscape:window-width="1920"
     inkscape:window-height="1181"
     inkscape:window-x="1916"
     inkscape:window-y="-4"
     showguides="true"
     inkscape:guide-bbox="true"
     showgrid="false"
     inkscape:showpageshadow="false"
     inkscape:window-maximized="1" />
  <metadata
     id="metadata69503">
    <rdf:RDF>
      <cc:Work
         rdf:about="">
        <dc:format>image/svg+xml</dc:format>
        <dc:type
           rdf:resource="http://purl.org/dc/dcmitype/StillImage" />
        <dc:title></dc:title>
      </cc:Work>
    </rdf:RDF>
  </metadata>
  <g
     inkscape:label="Layer 1"
     inkscape:groupmode="layer"
     id="layer1"
     transform="translate(-463.15484,-280.32457)">
    <path
       id="path3287"
       d="m 489.72048,290.21952 c -0.39708,0.0107 -0.79801,0.11925 -1.16748,0.33257 l -23.66476,13.66331 c -1.18231,0.68261 -1.58332,2.18156 -0.90072,3.36386 l 8.06147,13.96473 c 0.68261,1.18231 2.18501,1.58332 3.36732,0.90071 l 12.36761,-7.13998 0,52.18318 c 0,1.36522 1.10137,2.46661 2.46659,2.46661 l 45.68742,0 c 1.36521,0 2.46312,-1.10139 2.46312,-2.46661 l 0,-52.25593 12.4958,7.21273 c 1.18231,0.68261 2.68125,0.2816 3.36384,-0.90071 l 8.06148,-13.96473 c 0.68259,-1.1823 0.28158,-2.68125 -0.90073,-3.36386 l -23.66129,-13.66331 c -0.48031,-0.27731 -1.01496,-0.3756 -1.5243,-0.31526 -0.0979,-0.0117 -0.19682,-0.0173 -0.29792,-0.0173 l -13.08819,0 c -0.19375,1.55273 -4.46539,2.7957 -9.69663,2.7957 -5.23124,0 -9.49941,-1.24297 -9.69315,-2.7957 l -13.20945,0 c -0.0795,0 -0.15809,0.007 -0.23557,0.0138 -0.0983,-0.009 -0.19516,-0.0166 -0.29446,-0.0138 z"
       style="fill:#ffffff;fill-opacity:1;stroke:#000000;stroke-width:1.00011086;stroke-linecap:butt;stroke-linejoin:miter;stroke-miterlimit:4;stroke-opacity:1;stroke-dasharray:none"
       inkscape:connector-curvature="0" />
  </g>
</svg>
