<?xml version="1.0" encoding="UTF-8" standalone="no"?>
<!-- Created with Inkscape (http://www.inkscape.org/) -->

<svg
   xmlns:dc="http://purl.org/dc/elements/1.1/"
   xmlns:cc="http://creativecommons.org/ns#"
   xmlns:rdf="http://www.w3.org/1999/02/22-rdf-syntax-ns#"
   xmlns:svg="http://www.w3.org/2000/svg"
   xmlns="http://www.w3.org/2000/svg"
   xmlns:sodipodi="http://sodipodi.sourceforge.net/DTD/sodipodi-0.dtd"
   xmlns:inkscape="http://www.inkscape.org/namespaces/inkscape"
   width="100"
   height="100"
   id="svg2996"
   version="1.1"
   inkscape:version="0.48.2 r9819"
   sodipodi:docname="Apple-grey.svg"
   inkscape:export-filename="D:\KULeuven\PhD\Work\Hybrid-BCI\HybBciCode\code\scenarios\pictures\apple-grey.png"
   inkscape:export-xdpi="90"
   inkscape:export-ydpi="90">
  <defs
     id="defs2998" />
  <sodipodi:namedview
     id="base"
     pagecolor="#000000"
     bordercolor="#666666"
     borderopacity="1.0"
     inkscape:pageopacity="0"
     inkscape:pageshadow="2"
     inkscape:zoom="3.959798"
     inkscape:cx="-31.105073"
     inkscape:cy="26.360155"
     inkscape:document-units="px"
     inkscape:current-layer="layer1"
     showgrid="false"
     inkscape:showpageshadow="false"
     inkscape:window-width="1920"
     inkscape:window-height="1181"
     inkscape:window-x="1916"
     inkscape:window-y="-4"
     inkscape:window-maximized="1"
     showborder="true" />
  <metadata
     id="metadata3001">
    <rdf:RDF>
      <cc:Work
         rdf:about="">
        <dc:format>image/svg+xml</dc:format>
        <dc:type
           rdf:resource="http://purl.org/dc/dcmitype/StillImage" />
        <dc:title></dc:title>
      </cc:Work>
    </rdf:RDF>
  </metadata>
  <g
     inkscape:label="Layer 1"
     inkscape:groupmode="layer"
     id="layer1"
     transform="translate(0,-952.36215)">
    <path
       style="fill:#646464;fill-opacity:1;fill-rule:evenodd;stroke:#000000;stroke-width:0.99989527000000000;stroke-miterlimit:4;stroke-opacity:1;stroke-dasharray:none"
       d="m 18.131433,952.96317 c -4.117711,0.0993 -8.4022572,1.58058 -12.7474854,2.93804 3.8952971,5.109 7.3371614,9.70742 12.7363404,12.64448 5.34987,2.88769 13.477724,4.75419 19.098784,6.11165 5.547101,1.38214 10.430821,0.88069 14.941776,1.30027 -1.03546,0.49432 -2.111203,0.97237 -3.171316,1.46531 -2.85984,-1.20938 -6.21425,-2.12361 -10.306775,-1.65468 -4.191144,0.46895 -10.075173,0.66725 -14.241664,3.75238 -4.191143,3.03578 -9.490266,8.35844 -11.289993,14.75086 -1.849032,6.41702 -2.253935,16.55952 -0.05974,24.82862 2.268149,8.1933 7.610433,19.0303 13.601301,24.6329 5.892254,5.4059 14.654322,7.174 22.050456,7.9384 7.346826,0.7657 16.738587,-0.854 23.123914,-3.4216 6.286717,-2.7157 12.055847,-7.2465 15.828561,-12.8252 3.672727,-5.6759 6.654528,-13.4262 6.92572,-20.8805 0.123276,-7.4772 -2.415409,-18.45309 -5.521785,-24.40124 -3.106378,-5.97284 -8.939443,-9.14022 -13.944161,-11.65768 -5.078676,-2.54216 -10.906914,-2.83219 -17.292242,-2.31388 -0.394464,-1.28342 0.740949,-2.68253 0.988173,-4.21275 0.172576,-1.57961 0.187756,-3.24113 1.001328,-5.06753 0.271195,-1.11064 0.0091,-2.64844 -0.853815,-3.36421 -0.936841,-0.81446 -3.9619,-1.8024 -4.947363,-1.67898 -0.961498,0.0987 -1.43903,1.45595 -1.463684,2.9368 0.369805,1.94982 0.166634,3.21893 0.913563,5.76842 0.320497,2.02384 0.565659,4.10622 0.763574,6.2288 -1.972301,-5.97284 -4.521909,-11.64289 -9.354049,-15.39441 -4.930757,-3.80089 -12.589835,-7.23876 -19.123087,-8.27536 -2.46846,-0.40725 -5.185697,-0.20851 -7.656322,-0.14891 z"
       id="svg_2"
       inkscape:connector-curvature="0"
       sodipodi:nodetypes="sccccccccccccccccccccccccccs"
       inkscape:export-filename="D:\KULeuven\PhD\Work\Hybrid-BCI\HybBciCode\code\scenarios\pictures\apple-grey.png"
       inkscape:export-xdpi="90"
       inkscape:export-ydpi="90" />
  </g>
</svg>
