<?xml version="1.0" encoding="UTF-8" standalone="no"?>
<!-- Created with Inkscape (http://www.inkscape.org/) -->

<svg
   xmlns:dc="http://purl.org/dc/elements/1.1/"
   xmlns:cc="http://creativecommons.org/ns#"
   xmlns:rdf="http://www.w3.org/1999/02/22-rdf-syntax-ns#"
   xmlns:svg="http://www.w3.org/2000/svg"
   xmlns="http://www.w3.org/2000/svg"
   xmlns:sodipodi="http://sodipodi.sourceforge.net/DTD/sodipodi-0.dtd"
   xmlns:inkscape="http://www.inkscape.org/namespaces/inkscape"
   width="100"
   height="100"
   id="svg5088"
   version="1.1"
   inkscape:version="0.48.2 r9819"
   sodipodi:docname="LightBulb-offset.svg"
   inkscape:export-filename="d:\KULeuven\PhD\Work\hybrid-BCI-2\code\scenarios\pictures\white-black-scenario\lightBulb-offset.png"
   inkscape:export-xdpi="90"
   inkscape:export-ydpi="90">
  <title
     id="title5125">id  e</title>
  <defs
     id="defs5090" />
  <sodipodi:namedview
     id="base"
     pagecolor="#000000"
     bordercolor="#666666"
     borderopacity="1.0"
     inkscape:pageopacity="0"
     inkscape:pageshadow="2"
     inkscape:zoom="7.9195959"
     inkscape:cx="19.754071"
     inkscape:cy="60.110304"
     inkscape:document-units="px"
     inkscape:current-layer="layer1"
     showgrid="false"
     inkscape:window-width="1920"
     inkscape:window-height="1181"
     inkscape:window-x="1916"
     inkscape:window-y="-4"
     inkscape:window-maximized="1"
     fit-margin-top="0"
     fit-margin-left="0"
     fit-margin-right="0"
     fit-margin-bottom="0"
     showborder="true"
     inkscape:showpageshadow="false" />
  <metadata
     id="metadata5093">
    <rdf:RDF>
      <cc:Work
         rdf:about="">
        <dc:format>image/svg+xml</dc:format>
        <dc:type
           rdf:resource="http://purl.org/dc/dcmitype/StillImage" />
        <cc:license
           rdf:resource="http://creativecommons.org/licenses/publicdomain/" />
        <dc:title>id  e</dc:title>
        <dc:date>2011-02-05</dc:date>
        <dc:creator>
          <cc:Agent>
            <dc:title>lmproulx</dc:title>
          </cc:Agent>
        </dc:creator>
      </cc:Work>
      <cc:License
         rdf:about="http://creativecommons.org/licenses/publicdomain/">
        <cc:permits
           rdf:resource="http://creativecommons.org/ns#Reproduction" />
        <cc:permits
           rdf:resource="http://creativecommons.org/ns#Distribution" />
        <cc:permits
           rdf:resource="http://creativecommons.org/ns#DerivativeWorks" />
      </cc:License>
    </rdf:RDF>
  </metadata>
  <g
     inkscape:label="Calque 1"
     inkscape:groupmode="layer"
     id="layer1"
     transform="translate(-243.92857,-695.15435)">
    <g
       id="g3034"
       transform="matrix(0.97404261,0,0,0.99840139,-7.2336126,1.7694847)"
       style="fill:#ffffff;fill-opacity:1;stroke:#000000;stroke-width:1.0141443;stroke-miterlimit:4;stroke-opacity:1;stroke-dasharray:none">
      <path
         inkscape:connector-curvature="0"
         id="path3782"
         d="m 298.4173,775.32905 1.05637,2.3542 c -0.67494,0.46068 -1.43166,0.83722 -1.8411,1.53929 0.17797,0.84548 1.6013,1.17028 1.81092,2.05237 -0.55895,0.50862 -1.40293,0.7086 -1.93165,1.41856 0.44204,0.58335 1.10228,1.49419 1.78074,1.8411 -0.71478,0.36612 -0.89756,0.66746 -1.32801,1.56947 0.37896,0.30357 1.05965,1.06855 1.75056,1.59964 0.88459,0.86275 3.04839,3.01821 3.04839,3.01821 0.0122,0.0976 0.45529,0.21339 1.05637,0.30182 l 2.32401,2.53529 c 2.07671,0.74385 4.0672,0.79815 6.60987,0.12073 l 2.59565,-2.74657 c 0.35917,-0.0741 0.7077,-0.14319 0.96582,-0.24146 1.41921,-1.01331 1.86622,-1.7608 3.16912,-3.13893 0.46047,-0.36263 1.10709,-1.69667 1.38837,-2.11274 -0.51916,-0.7847 -0.52326,-0.76237 -1.08655,-1.20728 0.3588,-0.52745 1.48562,-0.7814 1.66001,-1.72037 l -1.6902,-1.35819 c 0.20695,-0.7911 1.41569,-1.23119 1.62983,-2.0222 -0.20973,-0.68452 -1.18596,-1.05995 -1.66001,-1.56947 l 0.60364,-2.23347 -21.91215,0 z"
         style="fill:#ffffff;fill-opacity:1;stroke:#000000;stroke-width:1.0141443;stroke-linecap:round;stroke-linejoin:round;stroke-miterlimit:4;stroke-opacity:1;stroke-dasharray:none;stroke-dashoffset:3.00300009" />
      <path
         sodipodi:nodetypes="ccccccccccc"
         inkscape:connector-curvature="0"
         id="path3005"
         d="m 309.01668,694.99594 c -16.53241,0 -30.85095,13.85322 -29.93459,30.88702 -0.49191,4.43582 5.11762,15.11095 10.09024,21.09943 6.74404,12.12883 7.38981,13.57627 7.83472,26.8103 0.34299,1.58224 1.14567,2.07012 1.96903,2.25187 8.67804,1.68975 15.38702,0.73425 20.5563,0.0966 1.24301,-0.41525 1.99285,-1.20301 1.90548,-2.28344 0.49542,-17.97656 3.2435,-16.88479 11.49071,-30.71629 4.56723,-6.24158 6.25401,-15.43628 6.29483,-19.70761 0.48741,-23.80578 -21.32136,-28.18076 -30.20672,-28.43782 z"
         style="fill:#ffffff;fill-opacity:1;stroke:#000000;stroke-width:1.0141443;stroke-linecap:round;stroke-linejoin:round;stroke-miterlimit:4;stroke-opacity:1;stroke-dasharray:none;stroke-dashoffset:3.00300009" />
    </g>
  </g>
</svg>
