<?xml version="1.0" encoding="UTF-8" standalone="no"?>
<!-- Created with Inkscape (http://www.inkscape.org/) -->

<svg
   xmlns:dc="http://purl.org/dc/elements/1.1/"
   xmlns:cc="http://creativecommons.org/ns#"
   xmlns:rdf="http://www.w3.org/1999/02/22-rdf-syntax-ns#"
   xmlns:svg="http://www.w3.org/2000/svg"
   xmlns="http://www.w3.org/2000/svg"
   xmlns:sodipodi="http://sodipodi.sourceforge.net/DTD/sodipodi-0.dtd"
   xmlns:inkscape="http://www.inkscape.org/namespaces/inkscape"
   width="100"
   height="100"
   id="svg2985"
   version="1.1"
   inkscape:version="0.48.2 r9819"
   sodipodi:docname="target-crosshair-yellow.svg"
   inkscape:export-filename="D:\KULeuven\PhD\Work\Hybrid-BCI\HybBciCode\code\watchERP\textures\target-crosshair-yellow2.png"
   inkscape:export-xdpi="90"
   inkscape:export-ydpi="90">
  <defs
     id="defs2987" />
  <sodipodi:namedview
     id="base"
     pagecolor="#000000"
     bordercolor="#666666"
     borderopacity="1.0"
     inkscape:pageopacity="0"
     inkscape:pageshadow="2"
     inkscape:zoom="4.3796428"
     inkscape:cx="7.4523287"
     inkscape:cy="6.7130447"
     inkscape:document-units="px"
     inkscape:current-layer="layer1"
     showgrid="false"
     showborder="true"
     inkscape:showpageshadow="false"
     inkscape:window-width="1920"
     inkscape:window-height="1181"
     inkscape:window-x="1916"
     inkscape:window-y="-4"
     inkscape:window-maximized="1" />
  <metadata
     id="metadata2990">
    <rdf:RDF>
      <cc:Work
         rdf:about="">
        <dc:format>image/svg+xml</dc:format>
        <dc:type
           rdf:resource="http://purl.org/dc/dcmitype/StillImage" />
        <dc:title></dc:title>
      </cc:Work>
    </rdf:RDF>
  </metadata>
  <g
     inkscape:label="Layer 1"
     inkscape:groupmode="layer"
     id="layer1"
     transform="translate(0,-952.36218)">
    <path
       style="font-size:medium;font-style:normal;font-variant:normal;font-weight:normal;font-stretch:normal;text-indent:0;text-align:start;text-decoration:none;line-height:normal;letter-spacing:normal;word-spacing:normal;text-transform:none;direction:ltr;block-progression:tb;writing-mode:lr-tb;text-anchor:start;baseline-shift:baseline;color:#000000;fill:#ffff00;fill-opacity:1;stroke:#000000;stroke-width:0.779;marker:none;visibility:visible;display:inline;overflow:visible;enable-background:accumulate;font-family:Sans;-inkscape-font-specification:Sans;stroke-opacity:1;stroke-miterlimit:4;stroke-dasharray:none"
       d="M 45.90625 4.1875 L 45.90625 14.0625 C 28.638136 15.756571 15.889955 30.208944 13.96875 46.03125 L 4.03125 46.03125 L 4.03125 54.09375 L 13.9375 54.09375 C 14.203908 56.303648 14.697026 58.49722 15.4375 60.65625 C 15.4435 60.67925 15.46267 60.69575 15.46875 60.71875 C 15.4971 60.80075 15.50218 60.88675 15.53125 60.96875 L 15.5625 60.96875 C 19.313797 74.523936 32.016225 84.344315 45.90625 86.0625 L 45.90625 95.96875 L 53.96875 95.96875 L 53.96875 86.125 C 57.38585 85.748565 60.789911 84.836049 64.0625 83.34375 L 64.0625 83.375 C 64.11557 83.354 64.165858 83.3335 64.21875 83.3125 C 64.24076 83.3025 64.25928 83.29025 64.28125 83.28125 C 76.959047 78.159473 84.435387 66.470804 85.875 54.09375 L 95.96875 54.09375 L 95.96875 46.03125 L 85.96875 46.03125 C 85.179397 38.044779 81.801314 30.302187 75.5625 24.40625 C 75.53132 24.37495 75.50005 24.3436 75.46875 24.3125 C 69.769184 18.639719 62.133028 14.980131 53.96875 14.09375 L 53.96875 4.1875 L 45.90625 4.1875 z M 45.90625 22.21875 L 45.90625 27.09375 C 36.141922 28.777588 28.461643 36.452791 26.75 46.03125 L 22.15625 46.03125 C 24.098615 34.546591 33.439759 23.868957 45.90625 22.21875 z M 53.96875 22.21875 C 60.001972 23.082112 65.702224 25.908967 69.875 30.09375 L 69.90625 30.15625 L 69.96875 30.1875 C 74.521805 34.455939 77.075012 40.116146 77.8125 46.03125 L 73.0625 46.03125 C 71.355954 36.453911 63.726431 28.777447 53.96875 27.09375 L 53.96875 22.21875 z M 45.90625 35.1875 L 45.90625 38.59375 L 53.96875 38.59375 L 53.96875 35.1875 C 59.162847 36.61015 63.25178 40.704424 64.65625 46.03125 L 61.28125 46.03125 L 61.28125 54.09375 L 64.65625 54.09375 C 63.256144 59.428988 59.168479 63.544559 53.96875 64.96875 L 53.96875 61.40625 L 45.90625 61.40625 L 45.90625 64.96875 C 40.707579 63.544849 36.619677 59.427407 35.21875 54.09375 L 38.09375 54.09375 L 38.09375 46.03125 L 35.21875 46.03125 C 36.624025 40.70598 40.713194 36.609864 45.90625 35.1875 z M 22.09375 54.09375 L 26.75 54.09375 C 28.451233 63.687209 36.130194 71.378103 45.90625 73.0625 L 45.90625 77.75 C 35.432159 75.914805 25.785014 68.283759 23.21875 58.59375 L 23.1875 58.4375 L 23.125 58.28125 C 22.639632 56.912446 22.310854 55.514109 22.09375 54.09375 z M 73.0625 54.09375 L 77.71875 54.09375 C 76.331218 63.408706 70.592793 72.11386 61.09375 75.875 L 60.96875 75.90625 L 60.875 75.96875 C 58.66193 76.996805 56.332034 77.633819 53.96875 77.9375 L 53.96875 73.0625 C 63.73825 71.378227 71.366426 63.686217 73.0625 54.09375 z "
       transform="translate(0,952.36218)"
       id="path2993" />
  </g>
</svg>
