<?xml version="1.0" encoding="UTF-8" standalone="no"?>
<!-- Created with Inkscape (http://www.inkscape.org/) -->

<svg
   xmlns:dc="http://purl.org/dc/elements/1.1/"
   xmlns:cc="http://creativecommons.org/ns#"
   xmlns:rdf="http://www.w3.org/1999/02/22-rdf-syntax-ns#"
   xmlns:svg="http://www.w3.org/2000/svg"
   xmlns="http://www.w3.org/2000/svg"
   xmlns:sodipodi="http://sodipodi.sourceforge.net/DTD/sodipodi-0.dtd"
   xmlns:inkscape="http://www.inkscape.org/namespaces/inkscape"
   width="100"
   height="100"
   id="svg2985"
   version="1.1"
   inkscape:version="0.48.2 r9819"
   sodipodi:docname="target-crosshair-red.svg"
   inkscape:export-filename="D:\KULeuven\PhD\Work\hybrid-BCI\code\scenarios\textures\target-crosshair2.png"
   inkscape:export-xdpi="90"
   inkscape:export-ydpi="90">
  <defs
     id="defs2987" />
  <sodipodi:namedview
     id="base"
     pagecolor="#000000"
     bordercolor="#666666"
     borderopacity="1.0"
     inkscape:pageopacity="0"
     inkscape:pageshadow="2"
     inkscape:zoom="12.3875"
     inkscape:cx="31.878431"
     inkscape:cy="50.521376"
     inkscape:document-units="px"
     inkscape:current-layer="layer1"
     showgrid="false"
     showborder="true"
     inkscape:showpageshadow="false"
     inkscape:window-width="1920"
     inkscape:window-height="1181"
     inkscape:window-x="1916"
     inkscape:window-y="-4"
     inkscape:window-maximized="1" />
  <metadata
     id="metadata2990">
    <rdf:RDF>
      <cc:Work
         rdf:about="">
        <dc:format>image/svg+xml</dc:format>
        <dc:type
           rdf:resource="http://purl.org/dc/dcmitype/StillImage" />
        <dc:title></dc:title>
      </cc:Work>
    </rdf:RDF>
  </metadata>
  <g
     inkscape:label="Layer 1"
     inkscape:groupmode="layer"
     id="layer1"
     transform="translate(0,-952.36218)">
    <path
       style="font-size:medium;font-style:normal;font-variant:normal;font-weight:normal;font-stretch:normal;text-indent:0;text-align:start;text-decoration:none;line-height:normal;letter-spacing:normal;word-spacing:normal;text-transform:none;direction:ltr;block-progression:tb;writing-mode:lr-tb;text-anchor:start;baseline-shift:baseline;color:#000000;fill:#ffff00;fill-opacity:1;stroke:#000000;stroke-width:0.5;marker:none;visibility:visible;display:inline;overflow:visible;enable-background:accumulate;font-family:Sans;-inkscape-font-specification:Sans;stroke-opacity:1;stroke-miterlimit:4;stroke-dasharray:none"
       d="M 47.8125 15.40625 L 47.8125 23.84375 C 34.700639 24.743664 25.003416 35.850195 23.875 47.78125 L 15.40625 47.78125 L 15.40625 52.1875 L 23.875 52.1875 C 24.039106 54.055936 24.4012 55.901084 25.03125 57.71875 L 25 57.71875 C 25.01455 57.77375 25.04754 57.8202 25.0625 57.875 C 27.797544 67.886232 37.441431 75.118952 47.8125 76.125 L 47.8125 84.5625 L 52.1875 84.5625 L 52.1875 76.1875 C 54.926467 75.974111 57.671454 75.292492 60.28125 74.09375 L 60.28125 74.125 C 60.31736 74.111 60.339 74.0765 60.375 74.0625 C 69.823581 70.27075 75.297716 61.426713 76.125 52.1875 L 84.6875 52.1875 L 84.6875 47.78125 L 76.15625 47.78125 C 75.719683 41.74019 73.266612 35.842063 68.5625 31.40625 L 68.59375 31.375 C 68.57766 31.3589 68.54738 31.35975 68.53125 31.34375 C 64.233897 27.057383 58.387899 24.338767 52.1875 23.84375 L 52.1875 15.40625 L 47.8125 15.40625 z M 47.8125 27.84375 L 47.8125 34.5625 C 40.93732 35.529462 35.512979 40.958258 34.53125 47.78125 L 27.90625 47.78125 C 29.081759 38.011531 37.087258 28.740212 47.8125 27.84375 z M 52.1875 27.84375 C 57.32111 28.338958 62.21143 30.669999 65.75 34.21875 L 65.78125 34.25 L 65.8125 34.25 C 69.679711 37.875469 71.743117 42.755283 72.15625 47.78125 L 65.46875 47.78125 C 64.485344 40.952814 59.071131 35.521922 52.1875 34.5625 L 52.1875 27.84375 z M 47.8125 36.5625 L 47.8125 39.5625 L 52.1875 39.5625 L 52.1875 36.5625 C 57.928733 37.48548 62.435405 42.00051 63.375 47.78125 L 60.3125 47.78125 L 60.3125 52.1875 L 63.40625 52.1875 C 62.479295 57.98977 57.941206 62.540497 52.1875 63.46875 L 52.1875 60.40625 L 47.8125 60.40625 L 47.8125 63.4375 C 42.071637 62.496579 37.523682 57.977186 36.59375 52.1875 L 39.59375 52.1875 L 39.59375 47.78125 L 36.59375 47.78125 C 37.534953 42.009409 42.080494 37.496683 47.8125 36.5625 z M 27.875 52.1875 L 34.53125 52.1875 C 35.501043 59.02498 40.926976 64.469081 47.8125 65.4375 L 47.8125 72.03125 C 39.145713 70.944099 31.015351 64.76934 28.875 56.6875 L 28.84375 56.59375 L 28.8125 56.53125 C 28.311202 55.117537 28.022935 53.658206 27.875 52.1875 z M 65.46875 52.1875 L 72.09375 52.1875 C 71.269533 59.92377 66.652317 67.289753 58.78125 70.40625 L 58.75 70.4375 L 58.6875 70.4375 C 56.602669 71.405993 54.412943 71.945647 52.1875 72.125 L 52.1875 65.4375 C 59.081542 64.476625 64.497362 59.030517 65.46875 52.1875 z "
       transform="translate(0,952.36218)"
       id="path2993" />
  </g>
</svg>
